<svg width="24" height="24" viewBox="0 0 24 24" fill="none" xmlns="http://www.w3.org/2000/svg">
<path d="M18 6H6C5.46974 6.00054 4.96136 6.20185 4.58641 6.55976C4.21146 6.91766 4.00057 7.40293 4 7.90909V16.0909C4.00057 16.5971 4.21146 17.0823 4.58641 17.4402C4.96136 17.7981 5.46974 17.9995 6 18H18C18.5303 17.9995 19.0386 17.7981 19.4136 17.4402C19.7885 17.0823 19.9994 16.5971 20 16.0909V7.90909C19.9994 7.40293 19.7885 6.91766 19.4136 6.55976C19.0386 6.20185 18.5303 6.00054 18 6ZM17.4936 9.15784L12.3507 12.976C12.2504 13.0504 12.127 13.0908 12 13.0908C11.873 13.0908 11.7496 13.0504 11.6493 12.976L6.50643 9.15784C6.446 9.11428 6.39525 9.0597 6.35712 8.99726C6.31899 8.93482 6.29424 8.86576 6.2843 8.79411C6.27437 8.72246 6.27946 8.64964 6.29926 8.57988C6.31907 8.51012 6.3532 8.44481 6.39968 8.38776C6.44615 8.3307 6.50405 8.28302 6.56999 8.24751C6.63594 8.21199 6.70862 8.18934 6.78382 8.18087C6.85901 8.17239 6.93522 8.17827 7.00802 8.19816C7.08081 8.21804 7.14874 8.25154 7.20786 8.2967L12 11.8544L16.7921 8.2967C16.912 8.21033 17.0626 8.17244 17.2115 8.19124C17.3603 8.21005 17.4955 8.28402 17.5876 8.39718C17.6798 8.51033 17.7216 8.65357 17.704 8.79592C17.6864 8.93826 17.6108 9.06828 17.4936 9.15784Z" fill="#F5F5F5"/>
</svg>
