<svg width="24" height="24" viewBox="0 0 24 24" fill="none" xmlns="http://www.w3.org/2000/svg">
<path d="M19.0639 16.1555L15.7172 13.1126C15.5591 12.9686 15.3512 12.8918 15.1374 12.8984C14.9237 12.905 14.7209 12.9945 14.572 13.148L12.6018 15.1741C12.1276 15.0835 11.1742 14.7863 10.1929 13.8074C9.21149 12.8252 8.91428 11.8694 8.82619 11.3985L10.8507 9.42752C11.0041 9.27861 11.0937 9.07583 11.1003 8.86209C11.1069 8.64835 11.0301 8.44043 10.8861 8.28233L7.84399 4.93647C7.69995 4.77787 7.49976 4.68167 7.28592 4.66829C7.07209 4.65492 6.86147 4.72543 6.69879 4.86485L4.91223 6.39699C4.76989 6.53984 4.68493 6.72997 4.67348 6.93131C4.66113 7.13713 4.42566 12.0127 8.20624 15.7949C11.5044 19.0921 15.6357 19.3334 16.7735 19.3334C16.9398 19.3334 17.0419 19.3284 17.069 19.3268C17.2702 19.3149 17.46 19.2296 17.6025 19.0872L19.1339 17.2998C19.2738 17.1377 19.3449 16.9272 19.3318 16.7134C19.3187 16.4996 19.2226 16.2994 19.0639 16.1555Z" fill="#F5F5F5"/>
</svg>
